Normalized EMG Linear Envelopes
nRows=38
nColumns=17

endheader
time	        VM	        VL	        RF	       GRA	        TA	   ADDLONG	   SEMIMEM	      BFLH	        GM	        GL	       TFL	   GLUTMAX	   GLUTMED	      PIRI	    OBTINT	        QF	
3.15	  0.029295	  0.035917	  0.289761	  0.555369	  0.101304	  0.000000	  0.374931	  0.159680	  0.000000	  0.444868	  0.000000	  0.060122	  0.205508	  0.087009	  0.058164	  0.034117	
3.1505	  0.028087	  0.033886	  0.291358	  0.557961	  0.101968	  0.000000	  0.372470	  0.157611	  0.000000	  0.438675	  0.000000	  0.059193	  0.205071	  0.086382	  0.058436	  0.034048	
3.151	  0.026913	  0.031907	  0.292978	  0.560483	  0.102662	  0.000000	  0.369979	  0.155566	  0.000000	  0.432501	  0.000000	  0.058299	  0.204627	  0.085769	  0.058705	  0.033982	
3.1515	  0.025772	  0.029982	  0.294619	  0.562932	  0.103387	  0.000000	  0.367458	  0.153545	  0.000000	  0.426351	  0.000000	  0.057441	  0.204175	  0.085168	  0.058970	  0.033918	
3.152	  0.024663	  0.028108	  0.296283	  0.565309	  0.104143	  0.000000	  0.364909	  0.151548	  0.000000	  0.420224	  0.000000	  0.056618	  0.203715	  0.084580	  0.059231	  0.033856	
3.1525	  0.023587	  0.026286	  0.297969	  0.567611	  0.104931	  0.000000	  0.362334	  0.149575	  0.000000	  0.414123	  0.000000	  0.055829	  0.203246	  0.084004	  0.059487	  0.033798	
3.153	  0.022542	  0.024514	  0.299677	  0.569839	  0.105751	  0.000000	  0.359733	  0.147626	  0.000000	  0.408051	  0.000000	  0.055072	  0.202767	  0.083439	  0.059739	  0.033742	
3.1535	  0.021529	  0.022792	  0.301405	  0.571993	  0.106606	  0.000000	  0.357110	  0.145702	  0.000000	  0.402009	  0.000000	  0.054349	  0.202279	  0.082886	  0.059986	  0.033688	
3.154	  0.020546	  0.021119	  0.303154	  0.574073	  0.107494	  0.000000	  0.354467	  0.143803	  0.000000	  0.396000	  0.000000	  0.053657	  0.201780	  0.082344	  0.060227	  0.033636	
3.1545	  0.019593	  0.019495	  0.304923	  0.576078	  0.108417	  0.000000	  0.351804	  0.141928	  0.000000	  0.390023	  0.000000	  0.052997	  0.201270	  0.081811	  0.060462	  0.033587	
3.155	  0.018670	  0.017918	  0.306712	  0.578008	  0.109377	  0.000000	  0.349124	  0.140079	  0.000000	  0.384083	  0.000000	  0.052366	  0.200749	  0.081289	  0.060692	  0.033540	
3.1555	  0.017776	  0.016389	  0.308519	  0.579863	  0.110373	  0.000000	  0.346428	  0.138255	  0.000000	  0.378179	  0.000000	  0.051766	  0.200217	  0.080777	  0.060915	  0.033496	
3.156	  0.016911	  0.014906	  0.310344	  0.581643	  0.111406	  0.000000	  0.343720	  0.136457	  0.000000	  0.372314	  0.000000	  0.051194	  0.199672	  0.080274	  0.061132	  0.033453	
3.1565	  0.016074	  0.013469	  0.312187	  0.583350	  0.112477	  0.000000	  0.340999	  0.134684	  0.000000	  0.366489	  0.000000	  0.050650	  0.199116	  0.079780	  0.061342	  0.033413	
3.157	  0.015265	  0.012077	  0.314047	  0.584982	  0.113587	  0.000000	  0.338268	  0.132937	  0.000000	  0.360706	  0.000000	  0.050134	  0.198547	  0.079294	  0.061545	  0.033375	
3.1575	  0.014482	  0.010729	  0.315921	  0.586540	  0.114737	  0.000000	  0.335528	  0.131216	  0.000000	  0.354965	  0.000000	  0.049645	  0.197966	  0.078817	  0.061740	  0.033339	
3.158	  0.013726	  0.009425	  0.317811	  0.588026	  0.115927	  0.000000	  0.332781	  0.129520	  0.000000	  0.349269	  0.000000	  0.049182	  0.197371	  0.078348	  0.061928	  0.033305	
3.1585	  0.012996	  0.008164	  0.319713	  0.589440	  0.117157	  0.000000	  0.330028	  0.127851	  0.000000	  0.343617	  0.000000	  0.048745	  0.196762	  0.077887	  0.062108	  0.033274	
3.159	  0.012292	  0.006945	  0.321629	  0.590782	  0.118429	  0.000000	  0.327271	  0.126209	  0.000000	  0.338012	  0.000000	  0.048332	  0.196140	  0.077433	  0.062279	  0.033244	
3.1595	  0.011613	  0.005767	  0.323555	  0.592053	  0.119743	  0.000000	  0.324510	  0.124592	  0.000000	  0.332454	  0.000000	  0.047944	  0.195504	  0.076987	  0.062442	  0.033216	
3.16	  0.010958	  0.004630	  0.325492	  0.593254	  0.121100	  0.000000	  0.321748	  0.123002	  0.000000	  0.326944	  0.000000	  0.047580	  0.194853	  0.076547	  0.062597	  0.033190	
3.1605	  0.010327	  0.003532	  0.327438	  0.594385	  0.122500	  0.000000	  0.318985	  0.121438	  0.000000	  0.321483	  0.000000	  0.047239	  0.194189	  0.076114	  0.062743	  0.033166	
3.161	  0.009719	  0.002475	  0.329392	  0.595446	  0.123944	  0.000000	  0.316222	  0.119901	  0.000000	  0.316072	  0.000000	  0.046920	  0.193509	  0.075686	  0.062880	  0.033144	
3.1615	  0.009135	  0.001455	  0.331354	  0.596438	  0.125432	  0.000000	  0.313462	  0.118389	  0.000000	  0.310712	  0.000000	  0.046624	  0.192815	  0.075265	  0.063009	  0.033123	
3.162	  0.008573	  0.000474	  0.333322	  0.597361	  0.126965	  0.000000	  0.310704	  0.116904	  0.000000	  0.305402	  0.000000	  0.046349	  0.192107	  0.074848	  0.063128	  0.033105	
3.1625	  0.008033	  0.000000	  0.335294	  0.598214	  0.128543	  0.000000	  0.307950	  0.115446	  0.000000	  0.300143	  0.000000	  0.046095	  0.191383	  0.074437	  0.063238	  0.033089	
3.163	  0.007515	  0.000000	  0.337270	  0.598998	  0.130168	  0.000000	  0.305201	  0.114013	  0.000000	  0.294937	  0.000000	  0.045861	  0.190645	  0.074031	  0.063339	  0.033074	
3.1635	  0.007017	  0.000000	  0.339249	  0.599712	  0.131840	  0.000000	  0.302458	  0.112607	  0.000000	  0.289783	  0.000000	  0.045647	  0.189891	  0.073628	  0.063431	  0.033061	
3.164	  0.006540	  0.000000	  0.341229	  0.600357	  0.133559	  0.000000	  0.299721	  0.111226	  0.000000	  0.284681	  0.000000	  0.045452	  0.189123	  0.073230	  0.063512	  0.033050	
3.1645	  0.006083	  0.000000	  0.343209	  0.600931	  0.135326	  0.000000	  0.296992	  0.109872	  0.000000	  0.279633	  0.000000	  0.045277	  0.188339	  0.072836	  0.063584	  0.033040	
3.165	  0.005646	  0.000000	  0.345189	  0.601434	  0.137141	  0.000000	  0.294270	  0.108544	  0.000000	  0.274637	  0.000000	  0.045119	  0.187541	  0.072445	  0.063646	  0.033033	
3.1655	  0.005228	  0.000000	  0.347168	  0.601867	  0.139006	  0.000000	  0.291558	  0.107241	  0.000000	  0.269695	  0.000000	  0.044980	  0.186728	  0.072056	  0.063697	  0.033026	
3.166	  0.004828	  0.000000	  0.349144	  0.602228	  0.140920	  0.000000	  0.288854	  0.105964	  0.000000	  0.264805	  0.000000	  0.044858	  0.185900	  0.071671	  0.063738	  0.033022	
3.1665	  0.004446	  0.000000	  0.351117	  0.602518	  0.142885	  0.000000	  0.286160	  0.104712	  0.000000	  0.259970	  0.000000	  0.044752	  0.185058	  0.071288	  0.063768	  0.033018	
3.167	  0.004082	  0.000000	  0.353086	  0.602736	  0.144900	  0.000000	  0.283477	  0.103485	  0.000000	  0.255188	  0.000000	  0.044664	  0.184201	  0.070908	  0.063787	  0.033017	
3.1675	  0.003736	  0.000000	  0.355050	  0.602882	  0.146966	  0.000000	  0.280804	  0.102283	  0.000000	  0.250459	  0.000000	  0.044591	  0.183330	  0.070529	  0.063795	  0.033016	
3.168	  0.003406	  0.000000	  0.357009	  0.602955	  0.149084	  0.000000	  0.278141	  0.101106	  0.000000	  0.245785	  0.000000	  0.044534	  0.182445	  0.070152	  0.063791	  0.033017	
3.1685	  0.003093	  0.000000	  0.358960	  0.602955	  0.151253	  0.000000	  0.275490	  0.099954	  0.000000	  0.241165	  0.000000	  0.044491	  0.181546	  0.069776	  0.063775	  0.033020	
